<svg width="28" height="28" viewBox="0 0 28 28" fill="none" xmlns="http://www.w3.org/2000/svg">
<mask id="mask0_788_135" style="mask-type:alpha" maskUnits="userSpaceOnUse" x="0" y="0" width="28" height="28">
<rect width="28" height="28" fill="#D9D9D9"/>
</mask>
<g mask="url(#mask0_788_135)">
<path d="M8.16927 9.33203C7.5276 9.33203 6.9783 9.10356 6.52135 8.64662C6.06441 8.18967 5.83594 7.64037 5.83594 6.9987V4.66536C5.83594 4.0237 6.06441 3.47439 6.52135 3.01745C6.9783 2.5605 7.5276 2.33203 8.16927 2.33203H19.8359C20.4776 2.33203 21.0269 2.5605 21.4839 3.01745C21.9408 3.47439 22.1693 4.0237 22.1693 4.66536V6.9987C22.1693 7.64037 21.9408 8.18967 21.4839 8.64662C21.0269 9.10356 20.4776 9.33203 19.8359 9.33203H8.16927ZM8.16927 6.9987H19.8359V4.66536H8.16927V6.9987ZM4.66927 25.6654C4.0276 25.6654 3.4783 25.4369 3.02135 24.9799C2.56441 24.523 2.33594 23.9737 2.33594 23.332V22.1654H25.6693V23.332C25.6693 23.9737 25.4408 24.523 24.9839 24.9799C24.5269 25.4369 23.9776 25.6654 23.3359 25.6654H4.66927ZM2.33594 20.9987L6.3901 11.8695C6.58455 11.4418 6.87622 11.1063 7.2651 10.8633C7.65399 10.6202 8.07205 10.4987 8.51927 10.4987H19.4859C19.9332 10.4987 20.3512 10.6202 20.7401 10.8633C21.129 11.1063 21.4207 11.4418 21.6151 11.8695L25.6693 20.9987H2.33594ZM9.91927 18.6654H11.0859C11.2415 18.6654 11.3776 18.607 11.4943 18.4904C11.6109 18.3737 11.6693 18.2376 11.6693 18.082C11.6693 17.9265 11.6109 17.7904 11.4943 17.6737C11.3776 17.557 11.2415 17.4987 11.0859 17.4987H9.91927C9.76372 17.4987 9.6276 17.557 9.51094 17.6737C9.39427 17.7904 9.33594 17.9265 9.33594 18.082C9.33594 18.2376 9.39427 18.3737 9.51094 18.4904C9.6276 18.607 9.76372 18.6654 9.91927 18.6654ZM9.91927 16.332H11.0859C11.2415 16.332 11.3776 16.2737 11.4943 16.157C11.6109 16.0404 11.6693 15.9043 11.6693 15.7487C11.6693 15.5931 11.6109 15.457 11.4943 15.3404C11.3776 15.2237 11.2415 15.1654 11.0859 15.1654H9.91927C9.76372 15.1654 9.6276 15.2237 9.51094 15.3404C9.39427 15.457 9.33594 15.5931 9.33594 15.7487C9.33594 15.9043 9.39427 16.0404 9.51094 16.157C9.6276 16.2737 9.76372 16.332 9.91927 16.332ZM9.91927 13.9987H11.0859C11.2415 13.9987 11.3776 13.9404 11.4943 13.8237C11.6109 13.707 11.6693 13.5709 11.6693 13.4154C11.6693 13.2598 11.6109 13.1237 11.4943 13.007C11.3776 12.8904 11.2415 12.832 11.0859 12.832H9.91927C9.76372 12.832 9.6276 12.8904 9.51094 13.007C9.39427 13.1237 9.33594 13.2598 9.33594 13.4154C9.33594 13.5709 9.39427 13.707 9.51094 13.8237C9.6276 13.9404 9.76372 13.9987 9.91927 13.9987ZM13.4193 18.6654H14.5859C14.7415 18.6654 14.8776 18.607 14.9943 18.4904C15.1109 18.3737 15.1693 18.2376 15.1693 18.082C15.1693 17.9265 15.1109 17.7904 14.9943 17.6737C14.8776 17.557 14.7415 17.4987 14.5859 17.4987H13.4193C13.2637 17.4987 13.1276 17.557 13.0109 17.6737C12.8943 17.7904 12.8359 17.9265 12.8359 18.082C12.8359 18.2376 12.8943 18.3737 13.0109 18.4904C13.1276 18.607 13.2637 18.6654 13.4193 18.6654ZM13.4193 16.332H14.5859C14.7415 16.332 14.8776 16.2737 14.9943 16.157C15.1109 16.0404 15.1693 15.9043 15.1693 15.7487C15.1693 15.5931 15.1109 15.457 14.9943 15.3404C14.8776 15.2237 14.7415 15.1654 14.5859 15.1654H13.4193C13.2637 15.1654 13.1276 15.2237 13.0109 15.3404C12.8943 15.457 12.8359 15.5931 12.8359 15.7487C12.8359 15.9043 12.8943 16.0404 13.0109 16.157C13.1276 16.2737 13.2637 16.332 13.4193 16.332ZM13.4193 13.9987H14.5859C14.7415 13.9987 14.8776 13.9404 14.9943 13.8237C15.1109 13.707 15.1693 13.5709 15.1693 13.4154C15.1693 13.2598 15.1109 13.1237 14.9943 13.007C14.8776 12.8904 14.7415 12.832 14.5859 12.832H13.4193C13.2637 12.832 13.1276 12.8904 13.0109 13.007C12.8943 13.1237 12.8359 13.2598 12.8359 13.4154C12.8359 13.5709 12.8943 13.707 13.0109 13.8237C13.1276 13.9404 13.2637 13.9987 13.4193 13.9987ZM16.9193 18.6654H18.0859C18.2415 18.6654 18.3776 18.607 18.4943 18.4904C18.6109 18.3737 18.6693 18.2376 18.6693 18.082C18.6693 17.9265 18.6109 17.7904 18.4943 17.6737C18.3776 17.557 18.2415 17.4987 18.0859 17.4987H16.9193C16.7637 17.4987 16.6276 17.557 16.5109 17.6737C16.3943 17.7904 16.3359 17.9265 16.3359 18.082C16.3359 18.2376 16.3943 18.3737 16.5109 18.4904C16.6276 18.607 16.7637 18.6654 16.9193 18.6654ZM16.9193 16.332H18.0859C18.2415 16.332 18.3776 16.2737 18.4943 16.157C18.6109 16.0404 18.6693 15.9043 18.6693 15.7487C18.6693 15.5931 18.6109 15.457 18.4943 15.3404C18.3776 15.2237 18.2415 15.1654 18.0859 15.1654H16.9193C16.7637 15.1654 16.6276 15.2237 16.5109 15.3404C16.3943 15.457 16.3359 15.5931 16.3359 15.7487C16.3359 15.9043 16.3943 16.0404 16.5109 16.157C16.6276 16.2737 16.7637 16.332 16.9193 16.332ZM16.9193 13.9987H18.0859C18.2415 13.9987 18.3776 13.9404 18.4943 13.8237C18.6109 13.707 18.6693 13.5709 18.6693 13.4154C18.6693 13.2598 18.6109 13.1237 18.4943 13.007C18.3776 12.8904 18.2415 12.832 18.0859 12.832H16.9193C16.7637 12.832 16.6276 12.8904 16.5109 13.007C16.3943 13.1237 16.3359 13.2598 16.3359 13.4154C16.3359 13.5709 16.3943 13.707 16.5109 13.8237C16.6276 13.9404 16.7637 13.9987 16.9193 13.9987Z" fill="#FFC226"/>
</g>
</svg>
