<svg width="44" height="50" viewBox="0 0 44 50" fill="none" xmlns="http://www.w3.org/2000/svg">
<path d="M14.7832 35.9334C13.089 35.9334 11.6571 35.3485 10.4873 34.1788C9.31748 33.009 8.73258 31.577 8.73258 29.8828C8.73258 28.1886 9.31748 26.7567 10.4873 25.5869C11.6571 24.4171 13.089 23.8322 14.7832 23.8322C16.4774 23.8322 17.9094 24.4171 19.0791 25.5869C20.2489 26.7567 20.8338 28.1886 20.8338 29.8828C20.8338 31.577 20.2489 33.009 19.0791 34.1788C17.9094 35.3485 16.4774 35.9334 14.7832 35.9334ZM5.10221 49.2448C3.77108 49.2448 2.63154 48.7708 1.68361 47.8229C0.735684 46.875 0.261719 45.7354 0.261719 44.4043V10.5208C0.261719 9.1897 0.735684 8.05016 1.68361 7.10223C2.63154 6.1543 3.77108 5.68034 5.10221 5.68034H7.52246V0.839844H12.363V5.68034H31.7249V0.839844H36.5654V5.68034H38.9857C40.3168 5.68034 41.4563 6.1543 42.4043 7.10223C43.3522 8.05016 43.8262 9.1897 43.8262 10.5208V44.4043C43.8262 45.7354 43.3522 46.875 42.4043 47.8229C41.4563 48.7708 40.3168 49.2448 38.9857 49.2448H5.10221ZM5.10221 44.4043H38.9857V20.2018H5.10221V44.4043ZM5.10221 15.3613H38.9857V10.5208H5.10221V15.3613Z" fill="#1C1B1F"/>
</svg>
