<svg width="34" height="34" viewBox="0 0 34 34" fill="none" xmlns="http://www.w3.org/2000/svg">
<path d="M26.2109 4.25H22.6693C22.4814 4.25 22.3012 4.32463 22.1684 4.45747C22.0356 4.5903 21.9609 4.77047 21.9609 4.95833V5.04192L26.9193 9.00858V4.95833C26.9193 4.77047 26.8446 4.5903 26.7118 4.45747C26.579 4.32463 26.3988 4.25 26.2109 4.25Z" fill="#FFC226"/>
<path fill-rule="evenodd" clip-rule="evenodd" d="M15.2344 13.4583C15.2344 12.9887 15.4209 12.5383 15.753 12.2062C16.0851 11.8741 16.5356 11.6875 17.0052 11.6875C17.4749 11.6875 17.9253 11.8741 18.2574 12.2062C18.5895 12.5383 18.776 12.9887 18.776 13.4583C18.776 13.928 18.5895 14.3784 18.2574 14.7105C17.9253 15.0426 17.4749 15.2292 17.0052 15.2292C16.5356 15.2292 16.0851 15.0426 15.753 14.7105C15.4209 14.3784 15.2344 13.928 15.2344 13.4583V13.4583Z" fill="#FFC226"/>
<path fill-rule="evenodd" clip-rule="evenodd" d="M29.3984 15.5253L30.5063 16.4122C30.7268 16.584 31.0062 16.662 31.2839 16.6293C31.5615 16.5965 31.8151 16.4556 31.9896 16.2371C32.1641 16.0187 32.2454 15.7402 32.216 15.4622C32.1865 15.1841 32.0487 14.9289 31.8323 14.7518L20.3219 5.54349C19.3798 4.78963 18.2092 4.37891 17.0026 4.37891C15.796 4.37891 14.6254 4.78963 13.6834 5.54349L2.17294 14.7518C1.95276 14.9278 1.81153 15.1841 1.78032 15.4643C1.7491 15.7444 1.83045 16.0255 2.00648 16.2457C2.18251 16.4659 2.43879 16.6071 2.71894 16.6383C2.9991 16.6695 3.28018 16.5882 3.50035 16.4122L4.60677 15.5253V30.1028H2.83594C2.55415 30.1028 2.28389 30.2148 2.08464 30.414C1.88538 30.6133 1.77344 30.8835 1.77344 31.1653C1.77344 31.4471 1.88538 31.7174 2.08464 31.9166C2.28389 32.1159 2.55415 32.2278 2.83594 32.2278H31.1693C31.4511 32.2278 31.7213 32.1159 31.9206 31.9166C32.1198 31.7174 32.2318 31.4471 32.2318 31.1653C32.2318 30.8835 32.1198 30.6133 31.9206 30.414C31.7213 30.2148 31.4511 30.1028 31.1693 30.1028H29.3984V15.5253ZM13.1068 13.457C13.1068 12.4237 13.5172 11.4328 14.2478 10.7022C14.9784 9.97161 15.9694 9.56115 17.0026 9.56115C18.0358 9.56115 19.0268 9.97161 19.7574 10.7022C20.488 11.4328 20.8984 12.4237 20.8984 13.457C20.8984 14.4902 20.488 15.4811 19.7574 16.2118C19.0268 16.9424 18.0358 17.3528 17.0026 17.3528C15.9694 17.3528 14.9784 16.9424 14.2478 16.2118C13.5172 15.4811 13.1068 14.4902 13.1068 13.457ZM17.0734 18.7695C18.0141 18.7695 18.8259 18.7695 19.4761 18.8573C20.1731 18.9508 20.8404 19.1619 21.3815 19.7031C21.9227 20.2442 22.1338 20.9115 22.2273 21.6085C22.3094 22.2177 22.3151 22.9685 22.3151 23.8369V30.1028H20.1901V24.082C20.1901 23.0507 20.1873 22.382 20.1221 21.8918C20.0598 21.4314 19.9606 21.2869 19.8784 21.2062C19.7977 21.1254 19.6532 21.0248 19.1928 20.9625C18.7012 20.8973 18.0339 20.8945 17.0026 20.8945C15.9713 20.8945 15.3026 20.8973 14.8124 20.9625C14.352 21.0248 14.2075 21.1254 14.1268 21.2062C14.046 21.2869 13.9454 21.4314 13.8831 21.8918C13.8179 22.3834 13.8151 23.0507 13.8151 24.082V30.1028H11.6901V24.0112C11.6901 23.0705 11.6901 22.2587 11.7779 21.6085C11.8714 20.9115 12.0825 20.2442 12.6237 19.7031C13.1649 19.1619 13.8335 18.9508 14.5291 18.8573C15.1794 18.7695 15.9911 18.7695 16.9332 18.7695H17.072H17.0734Z" fill="#FFC226"/>
<path fill-rule="evenodd" clip-rule="evenodd" d="M15.2344 13.4583C15.2344 12.9887 15.4209 12.5383 15.753 12.2062C16.0851 11.8741 16.5356 11.6875 17.0052 11.6875C17.4749 11.6875 17.9253 11.8741 18.2574 12.2062C18.5895 12.5383 18.776 12.9887 18.776 13.4583C18.776 13.928 18.5895 14.3784 18.2574 14.7105C17.9253 15.0426 17.4749 15.2292 17.0052 15.2292C16.5356 15.2292 16.0851 15.0426 15.753 14.7105C15.4209 14.3784 15.2344 13.928 15.2344 13.4583V13.4583Z" fill="#FFC226"/>
</svg>
