<svg width="24" height="36" viewBox="0 0 24 36" fill="none" xmlns="http://www.w3.org/2000/svg">
<path d="M7.05882 35.7158C6.28235 35.7158 5.61765 35.3993 5.06471 34.7662C4.51176 34.1331 4.23529 33.3721 4.23529 32.4831V26.0177H7.05882V27.6341H21.1765V8.23797H7.05882V9.85431H4.23529V3.38894C4.23529 2.49995 4.51176 1.73892 5.06471 1.10585C5.61765 0.472784 6.28235 0.15625 7.05882 0.15625H21.1765C21.9529 0.15625 22.6176 0.472784 23.1706 1.10585C23.7235 1.73892 24 2.49995 24 3.38894V32.4831C24 33.3721 23.7235 34.1331 23.1706 34.7662C22.6176 35.3993 21.9529 35.7158 21.1765 35.7158H7.05882ZM7.05882 30.8668V32.4831H21.1765V30.8668H7.05882ZM1.97647 26.0177L0 23.7549L7.90588 14.7033H2.82353V11.4707H12.7059V22.7851H9.88235V16.9662L1.97647 26.0177ZM7.05882 5.00528H21.1765V3.38894H7.05882V5.00528Z" fill="white"/>
</svg>
