<svg width="20" height="28" viewBox="0 0 20 28" fill="none" xmlns="http://www.w3.org/2000/svg">
<path d="M5.88235 27.946C5.23529 27.946 4.68137 27.7011 4.22059 27.2114C3.7598 26.7216 3.52941 26.1329 3.52941 25.4452V20.4437H5.88235V21.6941H17.6471V6.68943H5.88235V7.93981H3.52941V2.93827C3.52941 2.25056 3.7598 1.66184 4.22059 1.1721C4.68137 0.682367 5.23529 0.4375 5.88235 0.4375H17.6471C18.2941 0.4375 18.848 0.682367 19.3088 1.1721C19.7696 1.66184 20 2.25056 20 2.93827V25.4452C20 26.1329 19.7696 26.7216 19.3088 27.2114C18.848 27.7011 18.2941 27.946 17.6471 27.946H5.88235ZM5.88235 24.1948V25.4452H17.6471V24.1948H5.88235ZM1.64706 20.4437L0 18.6931L6.58824 11.691H2.35294V9.1902H10.5882V17.9429H8.23529V13.4415L1.64706 20.4437ZM5.88235 4.18866H17.6471V2.93827H5.88235V4.18866Z" fill="#FFC226"/>
</svg>
