<svg width="19" height="19" viewBox="0 0 19 19" fill="none" xmlns="http://www.w3.org/2000/svg">
<path d="M8.02222 13.9333L15.4639 6.49167L13.9861 5.01389L8.02222 10.9778L5.01389 7.96944L3.53611 9.44722L8.02222 13.9333ZM2.11111 19C1.53056 19 1.03356 18.7933 0.620139 18.3799C0.206713 17.9664 0 17.4694 0 16.8889V2.11111C0 1.53056 0.206713 1.03356 0.620139 0.620139C1.03356 0.206713 1.53056 0 2.11111 0H16.8889C17.4694 0 17.9664 0.206713 18.3799 0.620139C18.7933 1.03356 19 1.53056 19 2.11111V16.8889C19 17.4694 18.7933 17.9664 18.3799 18.3799C17.9664 18.7933 17.4694 19 16.8889 19H2.11111ZM2.11111 16.8889H16.8889V2.11111H2.11111V16.8889Z" fill="#FFC226"/>
</svg>
