<svg width="22" height="26" viewBox="0 0 22 26" fill="none" xmlns="http://www.w3.org/2000/svg">
<path d="M10 11.7567L2 5.33804V18.1753H12V20.7428H2C1.45 20.7428 0.979167 20.4914 0.5875 19.9886C0.195833 19.4858 0 18.8814 0 18.1753V2.77058C0 2.06453 0.195833 1.46011 0.5875 0.957316C0.979167 0.454522 1.45 0.203125 2 0.203125H18C18.55 0.203125 19.0208 0.454522 19.4125 0.957316C19.8042 1.46011 20 2.06453 20 2.77058V9.18923H18V5.33804L10 11.7567ZM10 9.18923L18 2.77058H2L10 9.18923ZM18 25.8777C16.9 25.8777 15.9583 25.3749 15.175 24.3693C14.3917 23.3637 14 22.1549 14 20.7428V14.966C14 14.0674 14.2417 13.3079 14.725 12.6874C15.2083 12.0669 15.8 11.7567 16.5 11.7567C17.2 11.7567 17.7917 12.0669 18.275 12.6874C18.7583 13.3079 19 14.0674 19 14.966V20.7428H17V14.966C17 14.7948 16.95 14.6451 16.85 14.5167C16.75 14.3883 16.6333 14.3241 16.5 14.3241C16.3667 14.3241 16.25 14.3883 16.15 14.5167C16.05 14.6451 16 14.7948 16 14.966V20.7428C16 21.4488 16.1958 22.0533 16.5875 22.5561C16.9792 23.0589 17.45 23.3103 18 23.3103C18.55 23.3103 19.0208 23.0589 19.4125 22.5561C19.8042 22.0533 20 21.4488 20 20.7428V15.6079H22V20.7428C22 22.1549 21.6083 23.3637 20.825 24.3693C20.0417 25.3749 19.1 25.8777 18 25.8777ZM2 5.33804V2.77058V18.1753V5.33804Z" fill="#FFC226"/>
</svg>
