<svg width="24" height="27" viewBox="0 0 24 27" fill="none" xmlns="http://www.w3.org/2000/svg">
<path d="M10.9091 12.0369L2.18182 5.68829V18.3856H13.0909V20.925H2.18182C1.58182 20.925 1.06818 20.6764 0.640909 20.1791C0.213636 19.6818 0 19.0839 0 18.3856V3.14883C0 2.45048 0.213636 1.85265 0.640909 1.35534C1.06818 0.85803 1.58182 0.609375 2.18182 0.609375H19.6364C20.2364 0.609375 20.75 0.85803 21.1773 1.35534C21.6045 1.85265 21.8182 2.45048 21.8182 3.14883V9.49748H19.6364V5.68829L10.9091 12.0369ZM10.9091 9.49748L19.6364 3.14883H2.18182L10.9091 9.49748ZM19.6364 26.004C18.4364 26.004 17.4091 25.5066 16.5545 24.512C15.7 23.5174 15.2727 22.3217 15.2727 20.925V15.2113C15.2727 14.3224 15.5364 13.5712 16.0636 12.9575C16.5909 12.3438 17.2364 12.0369 18 12.0369C18.7636 12.0369 19.4091 12.3438 19.9364 12.9575C20.4636 13.5712 20.7273 14.3224 20.7273 15.2113V20.925H18.5455V15.2113C18.5455 15.042 18.4909 14.8938 18.3818 14.7669C18.2727 14.6399 18.1455 14.5764 18 14.5764C17.8545 14.5764 17.7273 14.6399 17.6182 14.7669C17.5091 14.8938 17.4545 15.042 17.4545 15.2113V20.925C17.4545 21.6234 17.6682 22.2212 18.0955 22.7185C18.5227 23.2158 19.0364 23.4645 19.6364 23.4645C20.2364 23.4645 20.75 23.2158 21.1773 22.7185C21.6045 22.2212 21.8182 21.6234 21.8182 20.925V15.8461H24V20.925C24 22.3217 23.5727 23.5174 22.7182 24.512C21.8636 25.5066 20.8364 26.004 19.6364 26.004ZM2.18182 5.68829V3.14883V18.3856V5.68829Z" fill="white"/>
</svg>
