<svg width="46" height="50" viewBox="0 0 46 50" fill="none" xmlns="http://www.w3.org/2000/svg">
<path d="M8 50C5.91667 50 4.14583 49.2708 2.6875 47.8125C1.22917 46.3542 0.5 44.5833 0.5 42.5V7.5C0.5 5.41667 1.22917 3.64583 2.6875 2.1875C4.14583 0.729167 5.91667 0 8 0H35.5V40H8C7.29167 40 6.69792 40.2396 6.21875 40.7188C5.73958 41.1979 5.5 41.7917 5.5 42.5C5.5 43.2083 5.73958 43.8021 6.21875 44.2812C6.69792 44.7604 7.29167 45 8 45H40.5V5H45.5V50H8ZM15.5 35H30.5V5H15.5V35ZM10.5 35V5H8C7.29167 5 6.69792 5.23958 6.21875 5.71875C5.73958 6.19792 5.5 6.79167 5.5 7.5V35.4375C5.91667 35.3125 6.32292 35.2083 6.71875 35.125C7.11458 35.0417 7.54167 35 8 35H10.5Z" fill="#1C1B1F"/>
</svg>
