<svg width="30" height="30" viewBox="0 0 30 30" fill="none" xmlns="http://www.w3.org/2000/svg">
<path d="M16.4558 0.833774C17.4896 0.829807 18.5234 0.840197 19.5569 0.864941L19.8318 0.874858C20.1491 0.886191 20.4622 0.900358 20.8404 0.917358C22.3478 0.988191 23.3763 1.22619 24.2787 1.57611C25.2137 1.93594 26.0013 2.42327 26.789 3.21094C27.5092 3.91872 28.0666 4.77487 28.4224 5.71986C28.7723 6.62227 29.0103 7.65219 29.0812 9.15952C29.0982 9.53636 29.1123 9.85086 29.1237 10.1682L29.1322 10.443C29.1574 11.476 29.1682 12.5094 29.1648 13.5427L29.1662 14.5995V16.4554C29.1697 17.4892 29.1588 18.5229 29.1336 19.5564L29.1251 19.8313C29.1138 20.1486 29.0996 20.4617 29.0826 20.8399C29.0118 22.3473 28.7709 23.3758 28.4224 24.2782C28.0678 25.2242 27.5102 26.081 26.789 26.7885C26.0806 27.5086 25.224 28.066 24.2787 28.4219C23.3763 28.7719 22.3478 29.0099 20.8404 29.0807C20.4622 29.0977 20.1491 29.1119 19.8318 29.1232L19.5569 29.1317C18.5234 29.1569 17.4896 29.1677 16.4558 29.1643L15.399 29.1657H13.5446C12.5108 29.1692 11.477 29.1583 10.4435 29.1331L10.1687 29.1246C9.83238 29.1124 9.49615 29.0982 9.16001 29.0821C7.65268 29.0113 6.62418 28.7704 5.72035 28.4219C4.77498 28.0668 3.91869 27.5094 3.21143 26.7885C2.49041 26.0806 1.9325 25.2239 1.5766 24.2782C1.22668 23.3758 0.988682 22.3473 0.917849 20.8399C0.902071 20.5038 0.887904 20.1676 0.875349 19.8313L0.868265 19.5564C0.842147 18.523 0.83034 17.4892 0.832849 16.4554V13.5427C0.828895 12.5094 0.839285 11.4761 0.864015 10.443L0.873932 10.1682C0.885265 9.85086 0.899432 9.53636 0.916432 9.15952C0.987265 7.65077 1.22527 6.62369 1.57518 5.71986C1.93129 4.7744 2.4903 3.91849 3.21285 3.21236C3.91962 2.49092 4.77538 1.9325 5.72035 1.57611C6.62418 1.22619 7.65126 0.988191 9.16001 0.917358L10.1687 0.874858L10.4435 0.867775C11.4765 0.841669 12.5098 0.829863 13.5432 0.832358L16.4558 0.833774ZM14.9995 7.91711C14.061 7.90383 13.1292 8.07722 12.2582 8.4272C11.3873 8.77718 10.5946 9.29677 9.92621 9.95577C9.25783 10.6148 8.72708 11.4 8.36482 12.2659C8.00256 13.1318 7.81601 14.0611 7.81601 14.9997C7.81601 15.9384 8.00256 16.8676 8.36482 17.7335C8.72708 18.5994 9.25783 19.3847 9.92621 20.0437C10.5946 20.7027 11.3873 21.2223 12.2582 21.5723C13.1292 21.9222 14.061 22.0956 14.9995 22.0824C16.8781 22.0824 18.6798 21.3361 20.0082 20.0077C21.3366 18.6793 22.0828 16.8776 22.0828 14.999C22.0828 13.1204 21.3366 11.3187 20.0082 9.99035C18.6798 8.66197 16.8781 7.91711 14.9995 7.91711ZM14.9995 10.7504C15.5641 10.74 16.125 10.8422 16.6496 11.0511C17.1743 11.2599 17.652 11.5712 18.055 11.9667C18.4579 12.3622 18.778 12.8341 18.9966 13.3548C19.2151 13.8754 19.3277 14.4344 19.3278 14.999C19.3279 15.5637 19.2155 16.1227 18.9971 16.6434C18.7787 17.1641 18.4588 17.6361 18.056 18.0317C17.6531 18.4274 17.1755 18.7388 16.651 18.9478C16.1264 19.1569 15.5655 19.2592 15.0009 19.249C13.8738 19.249 12.7928 18.8013 11.9957 18.0042C11.1987 17.2072 10.7509 16.1262 10.7509 14.999C10.7509 13.8719 11.1987 12.7908 11.9957 11.9938C12.7928 11.1968 13.8738 10.749 15.0009 10.749L14.9995 10.7504ZM22.437 5.79211C21.98 5.8104 21.5478 6.00482 21.2309 6.33465C20.914 6.66448 20.737 7.10413 20.737 7.56152C20.737 8.01892 20.914 8.45857 21.2309 8.7884C21.5478 9.11823 21.98 9.31265 22.437 9.33094C22.9067 9.33094 23.3571 9.14437 23.6892 8.81228C24.0213 8.48018 24.2078 8.02976 24.2078 7.56011C24.2078 7.09045 24.0213 6.64004 23.6892 6.30794C23.3571 5.97584 22.9067 5.78927 22.437 5.78927V5.79211Z" fill="#545454"/>
</svg>
