<svg width="30" height="27" viewBox="0 0 30 27" fill="none" xmlns="http://www.w3.org/2000/svg">
<path d="M15 26.5909C13.9091 25.7273 12.7273 25.0568 11.4545 24.5795C10.1818 24.1023 8.86364 23.8636 7.5 23.8636C6.54545 23.8636 5.60795 23.9886 4.6875 24.2386C3.76705 24.4886 2.88636 24.8409 2.04545 25.2955C1.56818 25.5455 1.10795 25.5341 0.664773 25.2614C0.221591 24.9886 0 24.5909 0 24.0682V7.63636C0 7.38636 0.0625 7.14773 0.1875 6.92045C0.3125 6.69318 0.5 6.52273 0.75 6.40909C1.79545 5.86364 2.88636 5.45454 4.02273 5.18182C5.15909 4.90909 6.31818 4.77273 7.5 4.77273C8.81818 4.77273 10.108 4.94318 11.3693 5.28409C12.6307 5.625 13.8409 6.13636 15 6.81818V23.3182C16.1591 22.5909 17.375 22.0455 18.6477 21.6818C19.9205 21.3182 21.2045 21.1364 22.5 21.1364C23.3182 21.1364 24.1193 21.2045 24.9034 21.3409C25.6875 21.4773 26.4773 21.6818 27.2727 21.9545V5.59091C27.6136 5.70454 27.9489 5.82386 28.2784 5.94886C28.608 6.07386 28.9318 6.22727 29.25 6.40909C29.5 6.52273 29.6875 6.69318 29.8125 6.92045C29.9375 7.14773 30 7.38636 30 7.63636V24.0682C30 24.5909 29.7784 24.9886 29.3352 25.2614C28.892 25.5341 28.4318 25.5455 27.9545 25.2955C27.1136 24.8409 26.233 24.4886 25.3125 24.2386C24.392 23.9886 23.4545 23.8636 22.5 23.8636C21.1364 23.8636 19.8182 24.1023 18.5455 24.5795C17.2727 25.0568 16.0909 25.7273 15 26.5909ZM17.7273 19.7727V6.81818L24.5455 0V13.6364L17.7273 19.7727ZM12.2727 21.9886V8.48864C11.5227 8.17045 10.7443 7.92614 9.9375 7.75568C9.13068 7.58523 8.31818 7.5 7.5 7.5C6.65909 7.5 5.84091 7.57955 5.04545 7.73864C4.25 7.89773 3.47727 8.13636 2.72727 8.45455V21.9886C3.52273 21.6932 4.3125 21.4773 5.09659 21.3409C5.88068 21.2045 6.68182 21.1364 7.5 21.1364C8.31818 21.1364 9.11932 21.2045 9.90341 21.3409C10.6875 21.4773 11.4773 21.6932 12.2727 21.9886Z" fill="#1C1B1F"/>
</svg>
