<svg width="24" height="35" viewBox="0 0 24 35" fill="none" xmlns="http://www.w3.org/2000/svg">
<path d="M7.5 18.891H10.5V14.1683H13.5V18.891H16.5V10.7335L12 7.2988L7.5 10.7335V18.891ZM12 29.7963C15.05 26.5905 17.3125 23.6782 18.7875 21.0592C20.2625 18.4402 21 16.1146 21 14.0824C21 10.9625 20.1312 8.40793 18.3937 6.41865C16.6562 4.42937 14.525 3.43473 12 3.43473C9.475 3.43473 7.34375 4.42937 5.60625 6.41865C3.86875 8.40793 3 10.9625 3 14.0824C3 16.1146 3.7375 18.4402 5.2125 21.0592C6.6875 23.6782 8.95 26.5905 12 29.7963ZM12 34.3473C7.975 30.426 4.96875 26.7837 2.98125 23.4206C0.99375 20.0574 0 16.9447 0 14.0824C0 9.78898 1.20625 6.36856 3.61875 3.82114C6.03125 1.27371 8.825 0 12 0C15.175 0 17.9688 1.27371 20.3813 3.82114C22.7938 6.36856 24 9.78898 24 14.0824C24 16.9447 23.0062 20.0574 21.0187 23.4206C19.0312 26.7837 16.025 30.426 12 34.3473Z" fill="white"/>
</svg>
