<svg width="19" height="26" viewBox="0 0 19 26" fill="none" xmlns="http://www.w3.org/2000/svg">
<path d="M5.9375 14.121H8.3125V10.5908H10.6875V14.121H13.0625V8.02331L9.5 5.45585L5.9375 8.02331V14.121ZM9.5 22.2727C11.9146 19.8764 13.7057 17.6994 14.8734 15.7417C16.0411 13.784 16.625 12.0457 16.625 10.5266C16.625 8.19447 15.9372 6.28492 14.5617 4.79794C13.1862 3.31095 11.499 2.56746 9.5 2.56746C7.50104 2.56746 5.8138 3.31095 4.43828 4.79794C3.06276 6.28492 2.375 8.19447 2.375 10.5266C2.375 12.0457 2.95885 13.784 4.12656 15.7417C5.29427 17.6994 7.08542 19.8764 9.5 22.2727ZM9.5 25.6746C6.31354 22.7434 3.93359 20.0208 2.36016 17.5069C0.786719 14.9929 0 12.6661 0 10.5266C0 7.31726 0.954948 4.7605 2.86484 2.8563C4.77474 0.952099 6.98646 0 9.5 0C12.0135 0 14.2253 0.952099 16.1352 2.8563C18.0451 4.7605 19 7.31726 19 10.5266C19 12.6661 18.2133 14.9929 16.6398 17.5069C15.0664 20.0208 12.6865 22.7434 9.5 25.6746Z" fill="#FFC226"/>
</svg>
