<svg width="110" height="89" viewBox="0 0 110 89" fill="none" xmlns="http://www.w3.org/2000/svg">
<path d="M107.582 86.8436C103.686 86.8436 99.7567 85.7684 95.7941 83.6202C93.8455 82.612 91.6136 81.0506 89.0945 78.9349C86.5758 76.8189 83.6701 74.1145 80.38 70.8244C77.0883 67.5346 69.6329 59.4748 58.0136 46.6449C55.125 43.4208 52.5387 40.5998 50.2562 38.1818H50.3567C55.125 38.1818 59.1549 36.2174 62.4465 32.288C65.7367 28.3592 67.3833 23.6581 67.3833 18.1829C67.3833 16.2231 67.1486 14.4032 66.6878 12.7185C71.3902 18.9047 73.748 26.4503 73.748 35.3611C73.748 42.7037 72.2301 49.0433 69.2109 54.3896C70.7782 56.1032 72.2248 57.6788 73.5521 59.1174C78.85 52.7774 81.5057 45.1967 81.5057 36.3684C81.5057 25.7568 78.2643 17.042 71.7833 10.2242C66.6038 4.77813 60.2071 1.51995 52.6057 0.426143C51.08 0.1437 49.4591 -0.00170928 47.7372 -0.00170928H20.5351V1.0056H21.8447C23.5909 1.0056 25.0843 1.62723 26.3282 2.86923C27.5702 4.1131 28.225 5.60717 28.2926 7.35299V63.2684C28.2718 63.8011 28.194 64.3077 28.0607 64.7898C30.55 65.874 33.242 66.5945 36.1529 66.9588C35.2824 65.8362 34.8415 64.5734 34.8415 63.1677V3.12129H47.3344C51.2967 3.18919 54.3692 4.70031 56.5527 7.65465C58.7345 10.6118 59.8273 14.5403 59.8273 19.4426C59.8273 25.3537 57.845 29.5854 53.883 32.1367C52.8757 32.8771 51.6318 33.464 50.1551 33.9002C48.6772 34.3374 47.2839 34.64 45.974 34.8068C44.6644 34.9754 42.0607 35.0588 38.166 35.0588V36.0661C39.4412 36.2019 41.2546 37.5776 43.6062 40.1971C45.9569 42.8162 50.725 48.1058 57.9129 56.065C65.0992 64.0237 69.9522 69.4487 72.471 72.3358C74.9897 75.2232 77.7934 77.9106 80.8838 80.3955C82.5617 81.8722 84.2412 83.1161 85.921 84.1234C87.5992 85.1307 89.3968 86.0205 91.3113 86.7934C93.2251 87.5642 95.0215 88.0857 96.701 88.3551C98.3792 88.6226 100.311 88.7578 102.494 88.7578C104.676 88.7578 107.179 88.3879 110 87.6497V86.6421C109.194 86.7757 108.388 86.8436 107.582 86.8436Z" fill="white"/>
<path d="M40.803 70.3209C31.1314 70.3209 23.205 67.1319 17.0266 60.7497C10.846 54.3698 7.75743 45.5037 7.75743 34.1523C7.75743 28.0412 8.71451 22.2636 10.629 16.8234C12.5432 11.3826 15.682 7.2194 20.0491 4.33017L19.4443 3.42362C13.198 6.58166 8.39518 10.9473 5.03717 16.5211C1.67792 22.0968 0 28.4774 0 35.6634C0 46.8136 3.87856 55.8806 11.6363 62.8651C19.394 69.8515 29.149 73.3438 40.9038 73.3438C49.7491 73.3438 57.4325 71.3511 63.9581 67.3749C63.0147 66.322 61.9953 65.1861 60.8925 63.9596C55.3602 68.1984 48.6652 70.3209 40.803 70.3209Z" fill="white"/>
</svg>
