<svg width="50" height="48" viewBox="0 0 50 48" fill="none" xmlns="http://www.w3.org/2000/svg">
<path d="M28.4697 20.0442L18.4513 10.0258L21.8104 6.72566L28.4697 13.3849L41.8471 0.0664062L45.1473 3.36657L28.4697 20.0442ZM31.0037 47.0348L14.5029 42.4381V45.8562H0.359375V19.9263H19.0996L33.7146 25.348C35.0111 25.8195 36.062 26.6445 36.8674 27.8231C37.6728 29.0018 38.0755 30.2983 38.0755 31.7126H42.79C44.7544 31.7126 46.4241 32.3609 47.7992 33.6574C49.1743 34.9538 49.8618 36.6629 49.8618 38.7844V41.1417L31.0037 47.0348ZM5.07389 41.1417H9.78841V24.6408H5.07389V41.1417ZM30.8859 42.0846L44.9116 37.7236C44.7937 37.2915 44.5285 36.9673 44.116 36.7513C43.7035 36.5352 43.2615 36.4271 42.79 36.4271H31.4752C30.2573 36.4271 29.1572 36.3486 28.175 36.1914C27.1928 36.0343 26.1321 35.7592 24.9927 35.3664L20.9265 33.952L22.2819 29.4732L26.9964 31.0054C27.7036 31.2412 28.5286 31.418 29.4715 31.5358C30.4144 31.6537 31.7109 31.7126 33.361 31.7126C33.361 31.2805 33.2333 30.8679 32.9779 30.4751C32.7226 30.0822 32.4181 29.8268 32.0645 29.7089L18.2745 24.6408H14.5029V37.6058L30.8859 42.0846Z" fill="#1C1B1F"/>
</svg>
