<svg width="30" height="30" viewBox="0 0 30 30" fill="none" xmlns="http://www.w3.org/2000/svg">
<path d="M21 19.5C19.75 19.5 18.6875 19.0625 17.8125 18.1875C16.9375 17.3125 16.5 16.25 16.5 15C16.5 13.75 16.9375 12.6875 17.8125 11.8125C18.6875 10.9375 19.75 10.5 21 10.5C22.25 10.5 23.3125 10.9375 24.1875 11.8125C25.0625 12.6875 25.5 13.75 25.5 15C25.5 16.25 25.0625 17.3125 24.1875 18.1875C23.3125 19.0625 22.25 19.5 21 19.5ZM21 16.5C21.425 16.5 21.7813 16.3563 22.0688 16.0688C22.3563 15.7813 22.5 15.425 22.5 15C22.5 14.575 22.3563 14.2188 22.0688 13.9313C21.7813 13.6438 21.425 13.5 21 13.5C20.575 13.5 20.2188 13.6438 19.9313 13.9313C19.6438 14.2188 19.5 14.575 19.5 15C19.5 15.425 19.6438 15.7813 19.9313 16.0688C20.2188 16.3563 20.575 16.5 21 16.5ZM12 30V25.65C12 25.125 12.125 24.6313 12.375 24.1688C12.625 23.7063 12.975 23.3375 13.425 23.0625C14.225 22.5875 15.0687 22.1938 15.9562 21.8813C16.8437 21.5688 17.75 21.3375 18.675 21.1875L21 24L23.325 21.1875C24.25 21.3375 25.15 21.5688 26.025 21.8813C26.9 22.1938 27.7375 22.5875 28.5375 23.0625C28.9875 23.3375 29.3438 23.7063 29.6063 24.1688C29.8688 24.6313 30 25.125 30 25.65V30H12ZM14.9625 27H19.575L17.55 24.525C17.1 24.65 16.6625 24.8125 16.2375 25.0125C15.8125 25.2125 15.3875 25.425 14.9625 25.65V27ZM22.425 27H27V25.65C26.6 25.4 26.1875 25.1813 25.7625 24.9938C25.3375 24.8063 24.9 24.65 24.45 24.525L22.425 27ZM3 27C2.175 27 1.46875 26.7063 0.88125 26.1188C0.29375 25.5313 0 24.825 0 24V3C0 2.175 0.29375 1.46875 0.88125 0.88125C1.46875 0.29375 2.175 0 3 0H24C24.825 0 25.5313 0.29375 26.1188 0.88125C26.7063 1.46875 27 2.175 27 3V10.5C26.6 10 26.1625 9.525 25.6875 9.075C25.2125 8.625 24.65 8.325 24 8.175V3H3V24H9.225C9.15 24.275 9.09375 24.55 9.05625 24.825C9.01875 25.1 9 25.375 9 25.65V27H3ZM6 9H16.5C17.15 8.5 17.8625 8.125 18.6375 7.875C19.4125 7.625 20.2 7.5 21 7.5V6H6V9ZM6 15H13.5C13.5 14.475 13.5563 13.9625 13.6688 13.4625C13.7813 12.9625 13.9375 12.475 14.1375 12H6V15ZM6 21H11.175C11.45 20.775 11.7438 20.575 12.0563 20.4C12.3688 20.225 12.6875 20.0625 13.0125 19.9125V18H6V21ZM3 24V3V8.1375V7.5V24Z" fill="#1C1B1F"/>
</svg>
