<svg width="29" height="29" viewBox="0 0 29 29" fill="none" xmlns="http://www.w3.org/2000/svg">
<mask id="mask0_788_123" style="mask-type:alpha" maskUnits="userSpaceOnUse" x="0" y="0" width="29" height="29">
<rect width="29" height="29" fill="#D9D9D9"/>
</mask>
<g mask="url(#mask0_788_123)">
<path d="M1.20312 24.1693V19.3359C1.20312 18.6512 1.43976 18.0773 1.91302 17.6141C2.38628 17.1509 2.95521 16.9193 3.61979 16.9193H7.57708C7.97986 16.9193 8.3625 17.02 8.725 17.2214C9.0875 17.4227 9.37951 17.6946 9.60104 18.037C10.1851 18.8224 10.905 19.4366 11.7609 19.8797C12.6168 20.3227 13.5281 20.5443 14.4948 20.5443C15.4816 20.5443 16.403 20.3227 17.2589 19.8797C18.1148 19.4366 18.8247 18.8224 19.3885 18.037C19.6503 17.6946 19.9575 17.4227 20.3099 17.2214C20.6623 17.02 21.0299 16.9193 21.4125 16.9193H25.3698C26.0545 16.9193 26.6285 17.1509 27.0917 17.6141C27.5549 18.0773 27.7865 18.6512 27.7865 19.3359V24.1693H19.3281V21.4203C18.6233 21.9238 17.863 22.3064 17.0474 22.5682C16.2318 22.83 15.3809 22.9609 14.4948 22.9609C13.6288 22.9609 12.783 22.825 11.9573 22.5531C11.1316 22.2812 10.3663 21.8936 9.66146 21.3901V24.1693H1.20312ZM14.4948 19.3359C13.7295 19.3359 13.0045 19.1597 12.3198 18.8073C11.6351 18.4549 11.0611 17.9665 10.5979 17.3422C10.2556 16.8387 9.8276 16.441 9.31406 16.149C8.80052 15.8569 8.24167 15.7109 7.6375 15.7109C8.08056 14.9658 9.01701 14.3767 10.4469 13.9437C11.8767 13.5108 13.226 13.2943 14.4948 13.2943C15.7635 13.2943 17.1128 13.5108 18.5427 13.9437C19.9726 14.3767 20.909 14.9658 21.3521 15.7109C20.7681 15.7109 20.2142 15.8569 19.6906 16.149C19.167 16.441 18.734 16.8387 18.3917 17.3422C17.9486 17.9866 17.3847 18.48 16.7 18.8224C16.0153 19.1648 15.2802 19.3359 14.4948 19.3359ZM4.82812 15.7109C3.82118 15.7109 2.96528 15.3585 2.26042 14.6536C1.55556 13.9488 1.20312 13.0929 1.20312 12.0859C1.20312 11.0589 1.55556 10.1979 2.26042 9.50312C2.96528 8.80833 3.82118 8.46094 4.82812 8.46094C5.85521 8.46094 6.71615 8.80833 7.41094 9.50312C8.10573 10.1979 8.45312 11.0589 8.45312 12.0859C8.45312 13.0929 8.10573 13.9488 7.41094 14.6536C6.71615 15.3585 5.85521 15.7109 4.82812 15.7109ZM24.1615 15.7109C23.1545 15.7109 22.2986 15.3585 21.5938 14.6536C20.8889 13.9488 20.5365 13.0929 20.5365 12.0859C20.5365 11.0589 20.8889 10.1979 21.5938 9.50312C22.2986 8.80833 23.1545 8.46094 24.1615 8.46094C25.1885 8.46094 26.0495 8.80833 26.7443 9.50312C27.4391 10.1979 27.7865 11.0589 27.7865 12.0859C27.7865 13.0929 27.4391 13.9488 26.7443 14.6536C26.0495 15.3585 25.1885 15.7109 24.1615 15.7109ZM14.4948 12.0859C13.4878 12.0859 12.6319 11.7335 11.9271 11.0286C11.2222 10.3238 10.8698 9.46788 10.8698 8.46094C10.8698 7.43385 11.2222 6.57292 11.9271 5.87812C12.6319 5.18333 13.4878 4.83594 14.4948 4.83594C15.5219 4.83594 16.3828 5.18333 17.0776 5.87812C17.7724 6.57292 18.1198 7.43385 18.1198 8.46094C18.1198 9.46788 17.7724 10.3238 17.0776 11.0286C16.3828 11.7335 15.5219 12.0859 14.4948 12.0859Z" fill="#FFC226"/>
</g>
</svg>
