<svg width="53" height="51" viewBox="0 0 53 51" fill="none" xmlns="http://www.w3.org/2000/svg">
<path d="M18.425 50.4375L13.9125 42.8375L5.3625 40.9375L6.19375 32.15L0.375 25.5L6.19375 18.85L5.3625 10.0625L13.9125 8.1625L18.425 0.5625L26.5 4.00625L34.575 0.5625L39.0875 8.1625L47.6375 10.0625L46.8063 18.85L52.625 25.5L46.8063 32.15L47.6375 40.9375L39.0875 42.8375L34.575 50.4375L26.5 46.9938L18.425 50.4375ZM20.4438 44.3813L26.5 41.7687L32.675 44.3813L36 38.6813L42.5312 37.1375L41.9375 30.4875L46.3312 25.5L41.9375 20.3938L42.5312 13.7438L36 12.3188L32.5563 6.61875L26.5 9.23125L20.325 6.61875L17 12.3188L10.4688 13.7438L11.0625 20.3938L6.66875 25.5L11.0625 30.4875L10.4688 37.2562L17 38.6813L20.4438 44.3813ZM24.0063 33.9313L37.425 20.5125L34.1 17.0688L24.0063 27.1625L18.9 22.175L15.575 25.5L24.0063 33.9313Z" fill="#1C1B1F"/>
</svg>
