<svg width="32" height="32" viewBox="0 0 32 32" fill="none" xmlns="http://www.w3.org/2000/svg">
<path d="M16.0013 0.167969C24.7461 0.167969 31.8347 7.25655 31.8347 16.0013C31.8347 24.7461 24.7461 31.8346 16.0013 31.8346C13.2032 31.8391 10.4544 31.0987 8.03716 29.6892L0.174324 31.8346L2.31499 23.9686C0.904388 21.5507 0.163316 18.8006 0.167991 16.0013C0.167991 7.25655 7.25657 0.167969 16.0013 0.167969ZM10.6053 8.55964L10.2887 8.5723C10.0836 8.58479 9.88329 8.63865 9.69966 8.73063C9.5279 8.8279 9.37111 8.94949 9.23416 9.09164C9.04416 9.27055 8.93649 9.42572 8.82091 9.57613C8.23527 10.3376 7.91995 11.2724 7.92474 12.233C7.92791 13.0088 8.13057 13.7641 8.44724 14.4702C9.09482 15.8984 10.1604 17.4105 11.5664 18.8117C11.9052 19.149 12.2377 19.4878 12.5956 19.8029C14.3426 21.341 16.4245 22.4503 18.6756 23.0424L19.5749 23.1801C19.8678 23.196 20.1607 23.1738 20.4552 23.1596C20.9164 23.1357 21.3666 23.0109 21.7742 22.7938C21.9815 22.687 22.1839 22.5708 22.3806 22.4455C22.3806 22.4455 22.4487 22.4011 22.5785 22.303C22.7922 22.1446 22.9237 22.0322 23.101 21.847C23.2324 21.7108 23.3464 21.5509 23.4335 21.3688C23.557 21.1107 23.6805 20.6183 23.7312 20.2082C23.7692 19.8947 23.7581 19.7237 23.7533 19.6176C23.747 19.4482 23.6061 19.2725 23.4525 19.1981L22.531 18.7848C22.531 18.7848 21.1535 18.1847 20.3112 17.8016C20.223 17.7631 20.1286 17.7411 20.0325 17.7366C19.9242 17.7255 19.8147 17.7377 19.7115 17.7724C19.6082 17.8071 19.5136 17.8634 19.434 17.9377C19.4261 17.9346 19.32 18.0248 18.1752 19.4118C18.1095 19.5001 18.019 19.5668 17.9153 19.6035C17.8115 19.6401 17.6992 19.6451 17.5926 19.6176C17.4894 19.59 17.3884 19.5551 17.2902 19.5131C17.0938 19.4308 17.0257 19.3991 16.8912 19.3421C15.9824 18.9456 15.1411 18.4098 14.3974 17.7541C14.1979 17.5799 14.0127 17.3899 13.8227 17.2062C13.1998 16.6097 12.6569 15.9348 12.2077 15.1986L12.1142 15.0481C12.0471 14.9471 11.9929 14.838 11.9527 14.7236C11.8926 14.4908 12.0493 14.304 12.0493 14.304C12.0493 14.304 12.4341 13.8828 12.613 13.6548C12.7872 13.4331 12.9344 13.2178 13.0294 13.0642C13.2162 12.7634 13.2748 12.4546 13.1767 12.2156C12.7333 11.1326 12.2742 10.0543 11.8023 8.98397C11.7089 8.7718 11.4318 8.6198 11.1801 8.58972C11.0946 8.58022 11.0091 8.57072 10.9236 8.56438C10.7109 8.55382 10.4979 8.55594 10.2855 8.57072L10.6037 8.55805L10.6053 8.55964Z" fill="#545454"/>
</svg>
